<svg width="68" height="71" viewBox="0 0 68 71" fill="none" xmlns="http://www.w3.org/2000/svg">
<path d="M5.80114 18.5369C6.34252 17.8092 7.05547 16.824 7.62643 16.12C9.33635 14.1793 9.55822 13.9249 11.1143 12.4901C11.5758 12.1114 12.1231 11.6558 12.6586 11.2269C8.70918 14.5698 8.20627 18.2707 11.8302 20.5575C11.8243 20.5575 11.8243 20.5575 11.8243 20.5634C16.8919 23.6164 27.9975 22.9567 36.7601 19.0457C45.2476 15.2591 48.3804 9.84237 44.1914 6.62371C40.5142 5.93442 36.13 5.85454 31.4913 6.47579L31.0091 5.68L31.4085 4.36058C34.1361 4.11504 36.7276 4.17421 38.9641 4.55583C39.5054 4.64754 40.2184 4.80433 40.7509 4.91675C41.7804 5.16821 42.3395 5.31908 43.0111 5.53504C43.6974 5.73917 44.2831 5.94329 45.3038 6.32196C46.3037 6.71542 46.7356 6.89292 47.5373 7.29229C48.4351 7.70192 49.3074 8.16524 50.1495 8.67975C56.8235 12.8776 52.673 20.5367 40.8959 25.7848C29.1513 31.0152 14.1851 31.8376 7.47852 27.69C7.47556 27.6841 7.46668 27.6782 7.44893 27.6722H7.46077C3.79835 25.3529 3.41377 21.9863 5.80114 18.5369ZM36.3578 47.8836L36.2631 43.168L32.9113 39.4405C21.8383 41.9492 10.9546 41.4108 4.90181 37.846C4.8811 37.8223 4.83081 37.7986 4.8101 37.775C1.38435 35.6657 0.538266 32.944 0.795641 29.9857C-0.00606753 34.3137 -0.0711509 35.8757 0.0442241 39.5795C0.186224 41.8989 1.52635 44.0378 4.22139 45.724L4.2421 45.7477C10.6942 49.7592 24.1369 50.6289 36.3578 47.8836ZM50.3359 53.2825C34.707 59.5512 15.1465 59.921 6.65018 54.1198C7.56773 56.3621 8.81621 58.4542 10.354 60.3263C18.1522 65.6513 36.1063 65.3111 50.4454 59.5572C58.8381 56.1935 64.1336 51.7176 65.524 47.5227L65.9145 46.2595C66.8404 43.0585 67.015 40.3931 67.1629 38.0205C66.9943 43.171 60.9267 49.0285 50.3359 53.2825ZM15.8358 65.3555C16.3269 65.8229 17.8711 67.7192 25.6959 69.8137C27.8111 70.2811 33.1361 71.781 42.9726 69.6007L43.0318 68.7043L42.2537 67.4855C33.1273 69.6451 22.9891 68.9232 15.8358 65.3555ZM38.4197 28.0539L46.7297 34.3522C46.7297 34.3522 48.5076 35.6331 46.8303 36.5325C45.1588 37.4229 40.8663 39.6032 40.8663 39.6032L36.627 38.0205L34.4999 38.9672L38.2511 42.2243L38.2807 47.2919L40.4846 46.3127L41.9461 42.032C41.9461 42.032 46.4338 40.3043 48.2148 39.6535C50.0046 39.0175 49.7649 41.1948 49.7649 41.1948L48.8834 51.5815L51.8121 50.2798L56.6342 36.2662C56.6342 36.2662 59.1902 35.0237 60.9889 33.9321C62.7846 32.8405 63.3999 31.03 63.3999 31.03C63.3999 31.03 61.6486 30.2756 59.631 30.882C57.6134 31.4826 54.9834 32.5535 54.9834 32.5535L41.3396 26.7581L38.4197 28.0539ZM20.8384 8.12654L26.4799 12.6202L28.0212 12.3895L24.9504 8.35729C24.9504 8.35729 24.2818 7.52304 25.1812 7.32483C26.0864 7.12367 28.3762 6.65625 28.3762 6.65625L30.0979 8.03187L31.2576 7.86029L29.9441 5.77171L30.6363 3.45533L29.5151 3.61804L28.1868 5.38121C28.1868 5.38121 25.8557 5.60012 24.9386 5.67704C24.0156 5.74804 24.412 4.757 24.412 4.757L26.1811 0L24.6309 0.227792L20.5484 6.17108C20.5484 6.17108 19.1876 6.41958 18.2025 6.70062C17.2144 6.97871 16.6937 7.74196 16.6937 7.74196C16.6937 7.74196 17.4185 8.32771 18.4391 8.307C19.4686 8.28629 20.8384 8.12654 20.8384 8.12654ZM48.7206 65.8673L45.0701 63.9592L44.2299 64.252L46.3924 66.1868C46.3924 66.1868 46.8539 66.5802 46.3688 66.7903C45.8836 66.9974 44.647 67.5062 44.647 67.5062L43.6264 67.0506L43.0199 67.2695L43.869 68.1748L43.7861 69.4972L44.4192 69.2782L44.8926 68.2044C44.8926 68.2044 46.1765 67.8227 46.6883 67.6867C47.1971 67.5476 47.0817 68.1452 47.0817 68.1452L46.5995 71L47.4426 70.7071L49.0964 66.9323C49.0964 66.9323 49.8271 66.6453 50.3507 66.382C50.8743 66.1187 51.0814 65.6336 51.0814 65.6336C51.0814 65.6336 50.6169 65.3792 50.043 65.5064C49.4661 65.6277 48.7206 65.8673 48.7206 65.8673Z" fill="#0091AD"/>
</svg>
