<svg width="113" height="87" viewBox="0 0 113 87" fill="none" xmlns="http://www.w3.org/2000/svg">
<path fill-rule="evenodd" clip-rule="evenodd" d="M0 3.52703C0 1.5791 1.58099 0 3.53125 0H38.829C46.203 0 52.6977 3.76271 56.4927 9.4713C60.2874 3.76296 66.7819 0 74.1562 0H109.469C111.419 0 113 1.5791 113 3.52703V74.3617C113 75.3012 112.625 76.202 111.957 76.8641C111.29 77.5262 110.386 77.895 109.445 77.8886L73.2761 77.6444C69.4969 77.6189 65.8651 79.107 63.1927 81.7762L58.997 85.967C57.6179 87.3443 55.3821 87.3443 54.003 85.967L49.7578 81.7268C47.1088 79.081 43.5161 77.5946 39.7699 77.5946H3.53125C1.58099 77.5946 0 76.0155 0 74.0676V3.52703ZM52.954 21.1504C52.9475 13.3633 46.6255 7.05405 38.829 7.05405H7.0625V70.5405H39.7699C44.5878 70.5405 49.2365 72.1795 52.9688 75.1484L52.954 21.1504ZM60.0313 75.1585V21.1622C60.0313 13.3705 66.3552 7.05405 74.1562 7.05405H105.938V70.8107L73.3239 70.5905C68.4778 70.5578 63.7932 72.1844 60.0313 75.1585Z" fill="#CCCCCC"/>
</svg>
