<svg width="128" height="16" viewBox="0 0 128 16" fill="none" xmlns="http://www.w3.org/2000/svg">
<path fill-rule="evenodd" clip-rule="evenodd" d="M8.88572 0.312592C8.79125 0.121181 8.59631 0 8.38285 0C8.1694 0 7.97446 0.121181 7.87999 0.312592L5.59331 4.94591L0.480148 5.68889C0.268914 5.71959 0.0934227 5.86754 0.0274623 6.07055C-0.0384981 6.27355 0.0165116 6.4964 0.169362 6.64539L3.86928 10.2519L2.99585 15.3444C2.95977 15.5548 3.04625 15.7674 3.21894 15.8929C3.39162 16.0184 3.62056 16.0349 3.8095 15.9356L8.38285 13.5312L12.9562 15.9356C13.1451 16.0349 13.3741 16.0184 13.5468 15.8929C13.7195 15.7674 13.8059 15.5548 13.7699 15.3444L12.8964 10.2519L16.5963 6.64539C16.7492 6.4964 16.8042 6.27355 16.7382 6.07055C16.6723 5.86754 16.4968 5.71959 16.2856 5.68889L11.1724 4.94591L8.88572 0.312592Z" fill="#E2E64B"/>
<path fill-rule="evenodd" clip-rule="evenodd" d="M37.8857 0.312592C37.7912 0.121181 37.5963 0 37.3829 0C37.1694 0 36.9745 0.121181 36.88 0.312592L34.5933 4.94591L29.4801 5.68889C29.2689 5.71959 29.0934 5.86754 29.0275 6.07055C28.9615 6.27355 29.0165 6.4964 29.1694 6.64539L32.8693 10.2519L31.9959 15.3444C31.9598 15.5548 32.0463 15.7674 32.2189 15.8929C32.3916 16.0184 32.6206 16.0349 32.8095 15.9356L37.3829 13.5312L41.9562 15.9356C42.1451 16.0349 42.3741 16.0184 42.5468 15.8929C42.7195 15.7674 42.8059 15.5548 42.7699 15.3444L41.8964 10.2519L45.5963 6.64539C45.7492 6.4964 45.8042 6.27355 45.7382 6.07055C45.6723 5.86754 45.4968 5.71959 45.2856 5.68889L40.1724 4.94591L37.8857 0.312592Z" fill="#E2E64B"/>
<path fill-rule="evenodd" clip-rule="evenodd" d="M66.8857 0.312592C66.7912 0.121181 66.5963 0 66.3829 0C66.1694 0 65.9745 0.121181 65.88 0.312592L63.5933 4.94591L58.4801 5.68889C58.2689 5.71959 58.0934 5.86754 58.0275 6.07055C57.9615 6.27355 58.0165 6.4964 58.1694 6.64539L61.8693 10.2519L60.9959 15.3444C60.9598 15.5548 61.0463 15.7674 61.2189 15.8929C61.3916 16.0184 61.6206 16.0349 61.8095 15.9356L66.3829 13.5312L70.9562 15.9356C71.1451 16.0349 71.3741 16.0184 71.5468 15.8929C71.7195 15.7674 71.8059 15.5548 71.7699 15.3444L70.8964 10.2519L74.5963 6.64539C74.7492 6.4964 74.8042 6.27355 74.7382 6.07055C74.6723 5.86754 74.4968 5.71959 74.2856 5.68889L69.1724 4.94591L66.8857 0.312592Z" fill="#E2E64B"/>
<path fill-rule="evenodd" clip-rule="evenodd" d="M95.8857 0.312592C95.7912 0.121181 95.5963 0 95.3829 0C95.1694 0 94.9745 0.121181 94.88 0.312592L92.5933 4.94591L87.4801 5.68889C87.2689 5.71959 87.0934 5.86754 87.0275 6.07055C86.9615 6.27355 87.0165 6.4964 87.1694 6.64539L90.8693 10.2519L89.9959 15.3444C89.9598 15.5548 90.0463 15.7674 90.2189 15.8929C90.3916 16.0184 90.6206 16.0349 90.8095 15.9356L95.3829 13.5312L99.9562 15.9356C100.145 16.0349 100.374 16.0184 100.547 15.8929C100.719 15.7674 100.806 15.5548 100.77 15.3444L99.8964 10.2519L103.596 6.64539C103.749 6.4964 103.804 6.27355 103.738 6.07055C103.672 5.86754 103.497 5.71959 103.286 5.68889L98.1724 4.94591L95.8857 0.312592Z" fill="#E2E64B"/>
<path fill-rule="evenodd" clip-rule="evenodd" d="M119.5 0C119.716 0 119.914 0.121181 120.01 0.312592L122.329 4.94591L127.513 5.68889C127.727 5.71959 127.905 5.86754 127.972 6.07055C128.039 6.27355 127.983 6.4964 127.828 6.64539L124.077 10.2519L124.962 15.3444C124.999 15.5548 124.911 15.7674 124.736 15.8929C124.561 16.0184 124.329 16.0349 124.137 15.9356L119.5 13.5312L114.863 15.9356C114.671 16.0349 114.439 16.0184 114.264 15.8929C114.089 15.7674 114.001 15.5548 114.038 15.3444L114.923 10.2519L111.172 6.64539C111.017 6.4964 110.961 6.27355 111.028 6.07055C111.095 5.86754 111.273 5.71959 111.487 5.68889L116.671 4.94591L118.99 0.312592C119.086 0.121181 119.284 0 119.5 0ZM119.5 1.82786L117.559 5.70663C117.476 5.87214 117.316 5.98686 117.131 6.0134L112.791 6.63539L115.931 9.65459C116.065 9.78342 116.126 9.96904 116.095 10.1509L115.353 14.4141L119.235 12.4013C119.401 12.3154 119.599 12.3154 119.765 12.4013L123.647 14.4141L122.905 10.1509C122.874 9.96904 122.935 9.78342 123.069 9.65459L126.209 6.63539L121.869 6.0134C121.684 5.98686 121.524 5.87214 121.441 5.70663L119.5 1.82786Z" fill="#E2E54B"/>
</svg>
